<?xml version="1.0" standalone="no"?>
<svg xmlns:xlink="http://www.w3.org/1999/xlink" id="wave" style="transform:rotate(180deg); transition: 0.3s" viewBox="0 0 1440 150" version="1.1" xmlns="http://www.w3.org/2000/svg"><defs><linearGradient id="sw-gradient-0" x1="0" x2="0" y1="1" y2="0"><stop stop-color="rgba(20, 197, 69, 1)" offset="0%"/><stop stop-color="rgba(20, 197, 69, 1)" offset="100%"/></linearGradient></defs><path style="transform:translate(0, 0px); opacity:1" fill="url(#sw-gradient-0)" d="M0,90L26.7,80C53.3,70,107,50,160,35C213.3,20,267,10,320,10C373.3,10,427,20,480,37.5C533.3,55,587,80,640,92.5C693.3,105,747,105,800,95C853.3,85,907,65,960,60C1013.3,55,1067,65,1120,80C1173.3,95,1227,115,1280,107.5C1333.3,100,1387,65,1440,47.5C1493.3,30,1547,30,1600,45C1653.3,60,1707,90,1760,107.5C1813.3,125,1867,130,1920,125C1973.3,120,2027,105,2080,85C2133.3,65,2187,40,2240,25C2293.3,10,2347,5,2400,22.5C2453.3,40,2507,80,2560,102.5C2613.3,125,2667,130,2720,120C2773.3,110,2827,85,2880,85C2933.3,85,2987,110,3040,110C3093.3,110,3147,85,3200,62.5C3253.3,40,3307,20,3360,10C3413.3,0,3467,0,3520,17.5C3573.3,35,3627,70,3680,90C3733.3,110,3787,115,3813,117.5L3840,120L3840,150L3813.3,150C3786.7,150,3733,150,3680,150C3626.7,150,3573,150,3520,150C3466.7,150,3413,150,3360,150C3306.7,150,3253,150,3200,150C3146.7,150,3093,150,3040,150C2986.7,150,2933,150,2880,150C2826.7,150,2773,150,2720,150C2666.7,150,2613,150,2560,150C2506.7,150,2453,150,2400,150C2346.7,150,2293,150,2240,150C2186.7,150,2133,150,2080,150C2026.7,150,1973,150,1920,150C1866.7,150,1813,150,1760,150C1706.7,150,1653,150,1600,150C1546.7,150,1493,150,1440,150C1386.7,150,1333,150,1280,150C1226.7,150,1173,150,1120,150C1066.7,150,1013,150,960,150C906.7,150,853,150,800,150C746.7,150,693,150,640,150C586.7,150,533,150,480,150C426.7,150,373,150,320,150C266.7,150,213,150,160,150C106.7,150,53,150,27,150L0,150Z"/></svg>