<?xml version="1.0" standalone="no"?>
<svg xmlns:xlink="http://www.w3.org/1999/xlink" id="wave" style="transform:rotate(0deg); transition: 0.3s" viewBox="0 0 1440 150" version="1.1" xmlns="http://www.w3.org/2000/svg"><defs><linearGradient id="sw-gradient-0" x1="0" x2="0" y1="1" y2="0"><stop stop-color="rgba(20, 197, 69, 1)" offset="0%"/><stop stop-color="rgba(20, 197, 69, 1)" offset="100%"/></linearGradient></defs><path style="transform:translate(0, 0px); opacity:1" fill="url(#sw-gradient-0)" d="M0,90L34.3,80C68.6,70,137,50,206,35C274.3,20,343,10,411,10C480,10,549,20,617,37.5C685.7,55,754,80,823,92.5C891.4,105,960,105,1029,95C1097.1,85,1166,65,1234,60C1302.9,55,1371,65,1440,80C1508.6,95,1577,115,1646,107.5C1714.3,100,1783,65,1851,47.5C1920,30,1989,30,2057,45C2125.7,60,2194,90,2263,107.5C2331.4,125,2400,130,2469,125C2537.1,120,2606,105,2674,85C2742.9,65,2811,40,2880,25C2948.6,10,3017,5,3086,22.5C3154.3,40,3223,80,3291,102.5C3360,125,3429,130,3497,120C3565.7,110,3634,85,3703,85C3771.4,85,3840,110,3909,110C3977.1,110,4046,85,4114,62.5C4182.9,40,4251,20,4320,10C4388.6,0,4457,0,4526,17.5C4594.3,35,4663,70,4731,90C4800,110,4869,115,4903,117.5L4937.1,120L4937.1,150L4902.9,150C4868.6,150,4800,150,4731,150C4662.9,150,4594,150,4526,150C4457.1,150,4389,150,4320,150C4251.4,150,4183,150,4114,150C4045.7,150,3977,150,3909,150C3840,150,3771,150,3703,150C3634.3,150,3566,150,3497,150C3428.6,150,3360,150,3291,150C3222.9,150,3154,150,3086,150C3017.1,150,2949,150,2880,150C2811.4,150,2743,150,2674,150C2605.7,150,2537,150,2469,150C2400,150,2331,150,2263,150C2194.3,150,2126,150,2057,150C1988.6,150,1920,150,1851,150C1782.9,150,1714,150,1646,150C1577.1,150,1509,150,1440,150C1371.4,150,1303,150,1234,150C1165.7,150,1097,150,1029,150C960,150,891,150,823,150C754.3,150,686,150,617,150C548.6,150,480,150,411,150C342.9,150,274,150,206,150C137.1,150,69,150,34,150L0,150Z"/></svg>