<?xml version="1.0" standalone="no"?>
<svg xmlns:xlink="http://www.w3.org/1999/xlink" id="wave" style="transform:rotate(0deg); transition: 0.3s" viewBox="0 0 1440 170" version="1.1" xmlns="http://www.w3.org/2000/svg"><defs><linearGradient id="sw-gradient-0" x1="0" x2="0" y1="1" y2="0"><stop stop-color="rgba(11.014, 200.713, 90.388, 1)" offset="0%"/><stop stop-color="rgba(6.631, 134.686, 94.918, 1)" offset="100%"/></linearGradient></defs><path style="transform:translate(0, 0px); opacity:1" fill="url(#sw-gradient-0)" d="M0,85L80,87.8C160,91,320,96,480,90.7C640,85,800,68,960,76.5C1120,85,1280,119,1440,136C1600,153,1760,153,1920,150.2C2080,147,2240,142,2400,141.7C2560,142,2720,147,2880,130.3C3040,113,3200,74,3360,53.8C3520,34,3680,34,3840,31.2C4000,28,4160,23,4320,25.5C4480,28,4640,40,4800,45.3C4960,51,5120,51,5280,65.2C5440,79,5600,108,5760,119C5920,130,6080,125,6240,107.7C6400,91,6560,62,6720,56.7C6880,51,7040,68,7200,85C7360,102,7520,119,7680,116.2C7840,113,8000,91,8160,70.8C8320,51,8480,34,8640,48.2C8800,62,8960,108,9120,127.5C9280,147,9440,142,9600,119C9760,96,9920,57,10080,42.5C10240,28,10400,40,10560,53.8C10720,68,10880,85,11040,82.2C11200,79,11360,57,11440,45.3L11520,34L11520,170L11440,170C11360,170,11200,170,11040,170C10880,170,10720,170,10560,170C10400,170,10240,170,10080,170C9920,170,9760,170,9600,170C9440,170,9280,170,9120,170C8960,170,8800,170,8640,170C8480,170,8320,170,8160,170C8000,170,7840,170,7680,170C7520,170,7360,170,7200,170C7040,170,6880,170,6720,170C6560,170,6400,170,6240,170C6080,170,5920,170,5760,170C5600,170,5440,170,5280,170C5120,170,4960,170,4800,170C4640,170,4480,170,4320,170C4160,170,4000,170,3840,170C3680,170,3520,170,3360,170C3200,170,3040,170,2880,170C2720,170,2560,170,2400,170C2240,170,2080,170,1920,170C1760,170,1600,170,1440,170C1280,170,1120,170,960,170C800,170,640,170,480,170C320,170,160,170,80,170L0,170Z"/></svg>